<svg id="Layer_1" enable-background="new 0 0 59 60" height="512" viewBox="0 0 59 60" width="512" xmlns="http://www.w3.org/2000/svg"><path d="m39.03 0c-11.028 0-20 8.972-20 20 0 2.495.455 4.925 1.353 7.233l-20.06 20.06c-.188.188-.293.442-.293.707v11c0 .552.448 1 1 1h9c.265 0 .52-.105.707-.293l3-3c.188-.188.293-.442.293-.707v-5h4c.552 0 1-.448 1-1v-2h2c.552 0 1-.448 1-1v-3h4c.265 0 .52-.105.707-.293l5.06-5.06c2.309.898 4.739 1.353 7.233 1.353 11.028 0 20-8.972 20-20s-8.972-20-20-20zm-18.293 35.707-12 12c-.195.195-.451.293-.707.293s-.512-.098-.707-.293c-.391-.391-.391-1.023 0-1.414l12-12c.39-.391 1.024-.391 1.414 0s.39 1.023 0 1.414zm24.293-26.707c2.757 0 5 2.243 5 5s-2.243 5-5 5-5-2.243-5-5 2.243-5 5-5zm-6 27c-.552 0-1-.448-1-1s.448-1 1-1c7.72 0 14-6.28 14-14 0-.552.448-1 1-1s1 .448 1 1c0 8.822-7.177 16-16 16z"/><circle cx="45.03" cy="14" r="3"/></svg>