<svg height="512" viewBox="0 0 64 64" width="512" xmlns="http://www.w3.org/2000/svg"><path d="m6 26h6v-8h-6zm2-6h2v4h-2z"/><path d="m6 36h6v-8h-6zm2-6h2v4h-2z"/><path d="m6 46h6v-8h-6zm2-6h2v4h-2z"/><path d="m58 18h-6v8h6zm-2 6h-2v-4h2z"/><path d="m58 28h-6v8h6zm-2 6h-2v-4h2z"/><path d="m58 38h-6v8h6zm-2 6h-2v-4h2z"/><path d="m50 18h-36v28h36zm-2 26h-32v-24h32z"/><path d="m29 7a3 3 0 1 0 3-3 3 3 0 0 0 -3 3zm3-1a1 1 0 1 1 -1 1 1 1 0 0 1 1-1z"/><path d="m2 62h60v-60h-60zm14-2v-10h32v10zm44-46h-8v2h8v32h-8v2h8v10h-10v-12h-36v12h-10v-10h8v-2h-8v-32h8v-2h-8v-2h56zm-56-10h56v6h-56z"/><path d="m18 58h28v-6h-28zm2-4h24v2h-24z"/><path d="m8 52h-2v6h6v-2h-4z"/><path d="m58 52h-2v4h-4v2h6z"/><path d="m14 14h2v2h-2z"/><path d="m48 14h2v2h-2z"/><path d="m24 32h2v2h6v-2h2.809a6 6 0 1 0 0-6h-14.223l-2.586 2.586v5.414h6zm-2 0h-2v-2.586l1.414-1.414h14.662l.262-.6a4 4 0 1 1 0 3.2l-.262-.6h-6.076v2h-2v-2h-6z"/><path d="m39 28h2v2h-2z"/><path d="m18 38h4v2h-4z"/><path d="m24 38h4v2h-4z"/><path d="m30 38h4v2h-4z"/><path d="m36 38h4v2h-4z"/><path d="m42 38h4v2h-4z"/></svg>